<svg xmlns="http://www.w3.org/2000/svg" width="1024" height="1024" viewBox="104 88 1064 1064"><title>G foglia — monocromatica</title><path fill="#009B48" d="M1085 421C1070 460 1039 480 990 480H903C874 480 859 472 846 455C792 382 713 340 625 340C480 340 362 459 362 608C362 757 477 872 625 872C720 872 801 826 850 750H732C657 750 607 701 568 633C545 594 548 584 584 584H1040C1081 584 1100 596 1100 620C1100 872 888 1074 625 1074C365 1074 164 874 164 609C164 354 377 148 640 148C830 148 981 238 1085 421Z"/></svg>
